<?xml version="1.0" encoding="utf-8"?>
<!-- Generator: Adobe Illustrator 25.0.1, SVG Export Plug-In . SVG Version: 6.00 Build 0)  -->
<svg version="1.1" id="Layer_1" xmlns="http://www.w3.org/2000/svg" xmlns:xlink="http://www.w3.org/1999/xlink" x="0px" y="0px"
	 viewBox="0 0 365.1 73.4" style="enable-background:new 0 0 365.1 73.4;" xml:space="preserve">
<style type="text/css">
	.st0{fill:#111111;}
	.st1{fill:#AE1917;}
	.st2{fill-rule:evenodd;clip-rule:evenodd;fill:#AE1917;}
	.st3{fill:#FFFFFF;stroke:#111111;stroke-miterlimit:10;}
	.st4{fill:none;stroke:#AE1917;stroke-miterlimit:10;}
</style>
<g>
	<g>
		<g>
			<path class="st0" d="M69.8,28.1l10,15.4l10-15.4h4.8v30.6h-5.2V38.1l-9.6,14.5l-9.6-14.5v20.5H65V28.1H69.8z"/>
			<path class="st0" d="M132.4,43.4c0,9-6.5,15.8-15.5,15.8s-15.5-6.8-15.5-15.8s6.6-15.8,15.5-15.8
				C125.9,27.6,132.4,34.3,132.4,43.4z M127.1,43.4c0-5.9-4-10.8-10.1-10.8c-6.2,0-10.1,4.9-10.1,10.8c0,5.9,4,10.8,10.1,10.8
				S127.1,49.3,127.1,43.4z"/>
			<path class="st0" d="M144.3,33.1h-8.4v-5h22.1v5h-8.4v25.6h-5.2L144.3,33.1L144.3,33.1z"/>
			<path class="st0" d="M192.3,43.4c0,9-6.6,15.8-15.5,15.8s-15.5-6.8-15.5-15.8s6.6-15.8,15.5-15.8
				C185.7,27.6,192.3,34.3,192.3,43.4z M186.9,43.4c0-5.9-4-10.8-10.1-10.8s-10.1,4.9-10.1,10.8c0,5.9,4,10.8,10.1,10.8
				C183,54.2,186.9,49.3,186.9,43.4z"/>
			<path class="st0" d="M199.2,28.1h10c6.1,0,10.1,3.9,10.1,9.5c0,4.6-2.4,8.1-6.8,9.2l7.6,11.9h-6.1l-7.2-11.5h-2.4v11.5h-5.2V28.1
				z M214,37.6c0-3-2.1-4.5-5.5-4.5h-4.1v9.1h4.1C211.9,42.1,214,40.6,214,37.6z"/>
			<path class="st1" d="M236.5,45.9c-4.5-1.6-9.6-4-9.6-9.7c0-4.3,3.8-8.7,10-8.7c6.4,0,10,4.9,10,4.9l-3.6,3.6c0,0-2.5-3.5-6.3-3.5
				c-2.6,0-4.7,1.6-4.7,3.7c0,2.7,2.4,3.5,6.6,5.1c4.7,1.8,8.6,3.8,8.6,9.4s-4.9,8.5-10.7,8.5c-7.6,0-11.2-6.2-11.2-6.2l3.9-3.3
				c0,0,2.6,4.6,7.2,4.6c2.6,0,5.3-1,5.3-3.5C242.1,48.1,240.1,47.2,236.5,45.9z"/>
			<path class="st1" d="M255,28.1h10.4c6.1,0,10.1,4.2,10.1,9.8s-4.1,9.8-10.1,9.8h-5.1v11H255V28.1z M270.2,37.9
				c0-2.9-1.9-4.8-5.5-4.8h-4.5v9.6h4.5C268.3,42.7,270.2,40.7,270.2,37.9z"/>
			<path class="st1" d="M311,43.4c0,9-6.5,15.8-15.5,15.8s-15.5-6.8-15.5-15.8s6.5-15.8,15.5-15.8C304.5,27.6,311,34.3,311,43.4z
				 M305.7,43.4c0-5.9-4-10.8-10.1-10.8s-10.1,4.9-10.1,10.8c0,5.9,4,10.8,10.1,10.8C301.7,54.2,305.7,49.3,305.7,43.4z"/>
			<path class="st1" d="M318,28.1h10c6.1,0,10.1,3.9,10.1,9.5c0,4.6-2.4,8.1-6.8,9.2l7.6,11.9h-6.1l-7.3-11.5h-2.4v11.5H318
				L318,28.1L318,28.1z M332.8,37.6c0-3-2.1-4.5-5.5-4.5h-4.1v9.1h4.1C330.7,42.1,332.8,40.6,332.8,37.6z"/>
			<path class="st1" d="M351.4,33.1H343v-5h22.1v5h-8.4v25.6h-5.2L351.4,33.1L351.4,33.1z"/>
		</g>
		<path class="st2" d="M61.6,54c-1.6,1.1-2.5-1.9-2.6-5.2c0-1.8-1.7-22.2-1.7-22.2s-0.9,5-1.2,8c-0.2,3,0.1,14.3,0.1,14.3
			c0,5.5-2.6,1.3-3.5-1.1c-0.4-1.1-2.8-8.6-3.5-12.7c-0.7-4.1-1.6-12.9-1.6-12.9s-0.5,9-0.5,11.2s0.1,3.5,0.6,5.9
			c0.5,2.3,2.3,9.3,2.3,9.3c1.4,4.4-0.2,3.3-1.4,0.4c0,0-1.2-2.6-1.6-3.8c-3.1-9.9-10.7-42,9.7-32c-22.5-14.7-15.3,19-11.3,32.4
			c0.2,0.7,0.4,1.3,0.6,2.1c0.6,2.2,4.6,12.1,4.6,12.1h10.6L61.6,54z M67.3,25.2c-1.1-1.5-2.3-2.9-3.5-4.2c-1.4-1.5-3.2-3.2-4.7-4.6
			c-2-1.8-5.8-4.5-9.2-2.6c-1.4,0.8-3.2,3.4-3.2,3.4s1.2-0.8,3.8,0.1c4.3,1.6,8.6,6.7,11.8,10.9l0.1-3.1
			C62.5,25.2,67.3,25.2,67.3,25.2z"/>
		<path class="st2" d="M63.3,15.6C60,12.2,51.2,2.8,46,2.9c-6,0.2-7.3,8.3-7.3,13c0.1,7.6,0.3,12.8,1.8,20.3c-2-7.3-3-12.8-3.3-20.3
			c-0.2-5-0.2-7.7,1.5-12.6c-4.6,1.6-5,9.1-5,13.2c0,3.7,0.5,11.3,1.3,15.7s1.9,9.8,3.2,14c1.3,4.1,4.8,13.1,4.8,13.1
			c-1.2,0-2.3,0-3.5,0c-0.7-1.9-1.4-3.7-2.1-5.6c-0.6-0.3-6.7,5-7.7,6.2c2.1-3.6,3.9-5.6,6.9-8.4c-0.4-1.5-0.9-2.9-1.3-4.4
			c-1.6,1.2-3.2,2.4-4.8,3.6c1.5-1.5,3-3.1,4.5-4.6c-0.4-1.2-0.7-2.3-1.1-3.5c-2.3,0.2-5.4,3.4-7.3,4.9c1.1-2.3,4.1-6.2,6.5-7.4
			c-0.3-1.1-0.6-2.2-0.8-3.3c-2,0.5-3,1.1-4.6,2.4c1-1.7,2.6-2.7,4.2-3.8c-0.2-0.9-0.4-1.8-0.6-2.6c-2.7,0.5-6,2.9-8.5,4.8
			c2.2-3.1,4.8-5.3,8.3-6.9c0-1.1,0-2.3,0-3.5c-1.6-0.1-2.5,0.6-3.8,1.5c1.2-1.4,3-2.7,4-4c0-0.7,0-1.4,0-2.1
			c-3.5,1.2-7.8,4.4-10.4,7c1.9-4,6.8-7.1,10.5-9.2c0-1.1,0.1-2.3,0.1-3.5c-2.2,0.1-4.1,1.6-5.6,3.1c0.9-1.6,4-4.3,5.6-5.3
			c0-1.2,0.1-2.4,0.2-3.6c-2.8,0.2-9.7,5.9-12.2,7.8c0,0,1.8-2.3,4.1-4.3c2.9-2.6,8.3-5.4,9.1-6.2c0.5-0.5,0.7-2.4,1.2-3
			c0.5-0.7,1.2-1.2,1.2-1.2c-2.1,0.1-5.8,1.7-7.5,3c1.7-2.9,7.2-3.5,9.9-5c1.1-0.6,1.9-1.5,4.4-2C51.2-1.8,58.4,9.1,63.3,15.6"/>
		<path class="st2" d="M3.3,29.5C3,34.1,3.2,37.6,3.6,40.8C4.1,44,5.5,50.6,6,52.3c0.5,1.7,2.2,7,2.2,7c0.5,0,1,0,1.5,0
			c-0.7-2.2-1.4-4.4-2.2-6.6c1.6,0.4,3.1,0.8,4.7,1.2c-1.8-1-3.5-2-5.3-2.9c-0.5-1.6-0.9-3.1-1.4-4.7c1.4,0.3,2.9,0.5,4.3,0.8
			c-1.5-0.7-3-1.4-4.5-2.1c-0.2-1.2-0.5-2.4-0.7-3.5c0,0,4,0.7,6.6,2s3.9,2.3,3.9,2.3s-1.7-2.5-3.5-4s-7.4-3.1-7.4-3.1
			C4,37.8,3.9,36.9,3.8,36c0,0,1.8,0.2,2.9,0.8s2.1,1.2,2.1,1.2s-1.7-1.7-2.6-2.2s-2.4-1-2.4-1c0.1-1.3,0.1-2.6,0.2-3.9
			c0,0,4.4,1.2,6.2,2.3c1.7,1.1,4.2,2.7,4.2,2.7s-2.9-3.3-4.9-4.5C7.3,30.1,4.1,29,4.1,29c0.2-1,0.4-2.1,0.6-3.1c0,0,2.3,0.4,3.2,1
			s0.8,0.6,0.8,0.6s-0.5-1.1-1.6-1.6c-1.1-0.5-2.2-1.1-2.2-1.1c0.2-0.7,0.5-1.4,0.7-2c2.4,0.7,4.8,1.5,7.2,2.2l-7.1-4l1.2-2
			c1.2,0.4,2,0.4,3.1,1.2c-0.6-0.8-1.9-1.5-2.8-1.9c0,0,0.4-0.5,0.6-0.9c0.2-0.3,0.7-0.9,0.7-0.9c1.2,0.7,3,1.3,3.9,2.2
			c-0.9-1.3-2.2-2-3.5-2.6c0.4-0.4,0.8-0.9,1.2-1.3c1,0.1,2,0.1,2.6,1c-0.1-1-1.4-1.3-2.2-1.3c0.6-0.5,1.1-1,1.6-1.5
			c1.1,0.4,2.1,0.8,3.2,1.2c-1-0.6-2-1.3-3-1.9C5.4,18.2,3.9,22.6,3.3,29.5"/>
		<path class="st2" d="M18.5,7.2C-3.8,17.4-1.8,36.6,3.3,59.3c1.3,0,2.6,0.1,3.9,0.1C-0.9,38.6-1.4,16.5,18.5,7.2"/>
		<path class="st2" d="M22.2,10.1c-0.8,0.2-1.7,0.5-2.5,0.7c-10,10.4-2.2,35.8,1.2,48.1c1.7,0.1,3.4,0.2,5.1,0.2
			C21.9,48.6,10.1,19,22.2,10.1"/>
	</g>
	<g>
		<path class="st3" d="M261.7,70.7h-5l-1.1,2.2H255l4-7.7h0.6l4,7.7h-0.7L261.7,70.7z M261.5,70.2l-2.2-4.5l-2.2,4.5H261.5z"/>
		<path class="st3" d="M275.1,65.2v7.7h-0.5l-5.9-6.7v6.7h-0.6v-7.7h0.5l5.8,6.7v-6.7H275.1z"/>
		<path class="st3" d="M281.2,65.2h3.4c2.7,0,4.6,1.6,4.6,3.9s-1.8,3.9-4.6,3.9h-3.4V65.2z M284.5,72.4c2.4,0,4-1.4,4-3.3
			s-1.6-3.3-4-3.3h-2.7v6.7L284.5,72.4L284.5,72.4z"/>
		<path class="st3" d="M299.7,71.9l0.3-0.4c0.6,0.6,1.7,1,2.8,1c1.7,0,2.5-0.7,2.5-1.5c0-2.3-5.4-0.9-5.4-3.8c0-1.1,0.9-2.1,3-2.1
			c0.9,0,1.9,0.3,2.6,0.7l-0.2,0.4c-0.7-0.4-1.6-0.7-2.4-0.7c-1.7,0-2.4,0.7-2.4,1.5c0,2.3,5.4,0.9,5.4,3.8c0,1.1-1,2-3.1,2
			C301.5,73,300.3,72.5,299.7,71.9z"/>
		<path class="st3" d="M317.6,67.8c0,1.6-1.3,2.6-3.5,2.6h-2.5v2.5h-0.6v-7.7h3.1C316.3,65.2,317.6,66.1,317.6,67.8z M317,67.8
			c0-1.3-1-2.1-2.8-2.1h-2.5v4.2h2.5C316,69.9,317,69.1,317,67.8z"/>
		<path class="st3" d="M327.7,70.7h-5l-1.1,2.2h-0.7l4-7.7h0.6l4,7.7h-0.7L327.7,70.7z M327.4,70.2l-2.2-4.5l-2.2,4.5H327.4z"/>
		<path class="st3" d="M340,72.9l-2-2.6c-0.3,0-0.5,0.1-0.8,0.1h-2.5v2.5h-0.6v-7.7h3.1c2.2,0,3.5,1,3.5,2.6c0,1.2-0.7,2.1-2,2.4
			l2.1,2.7L340,72.9L340,72.9z M337.1,69.9c1.8,0,2.8-0.8,2.8-2.1s-1-2.1-2.8-2.1h-2.5v4.2L337.1,69.9L337.1,69.9z"/>
		<path class="st3" d="M351.9,72.4v0.5H346v-7.7h5.7v0.5h-5.1v3h4.6v0.5h-4.6v3.2L351.9,72.4L351.9,72.4z"/>
		<path class="st3" d="M356.3,71.9l0.3-0.4c0.6,0.6,1.7,1,2.8,1c1.7,0,2.5-0.7,2.5-1.5c0-2.3-5.4-0.9-5.4-3.8c0-1.1,0.9-2.1,3-2.1
			c0.9,0,1.9,0.3,2.6,0.7l-0.2,0.4c-0.7-0.4-1.6-0.7-2.4-0.7c-1.7,0-2.4,0.7-2.4,1.5c0,2.3,5.4,0.9,5.4,3.8c0,1.1-1,2-3.1,2
			C358.2,73,357,72.5,356.3,71.9z"/>
	</g>
	<line class="st4" x1="65" y1="69.9" x2="247.4" y2="69.9"/>
</g>
</svg>
